<svg width="1920" height="299" viewBox="0 0 1920 299" fill="none" xmlns="http://www.w3.org/2000/svg">
<g clip-path="url(#clip0_557_97)">
<path fill-rule="evenodd" clip-rule="evenodd" d="M1550.07 15.6948L1553.78 28.7583L1567.36 29.2631L1556.08 36.832L1559.79 49.8955L1549.11 41.5098L1537.83 49.0787L1542.51 36.3272L1531.82 27.9416L1545.4 28.4463L1550.07 15.6948ZM1568.49 73.3172L1549.5 44.4734L1523.02 66.6382L1538.39 68.8955L1517.5 86.2444L1530.87 88.2089L1508.7 106.589L1531.35 109.916L1529.32 123.781C1501.89 115.387 1474.47 105.025 1447.05 94.6632C1444.7 93.775 1442.35 92.8868 1440 91.9998C1437.21 90.9479 1434.43 89.8944 1431.64 88.8408C1354.43 59.6568 1277.21 30.4728 1200 38.381C1149.98 43.1449 1099.95 62.9156 1049.93 82.6863C1019.95 94.5339 989.977 106.381 960 115C880 138 800 138 720 138C640 138 560 138 480 153.381C452.47 158.476 424.94 165.563 397.411 172.649C344.94 186.156 292.47 199.663 240 199.381C164.49 199.788 88.9794 171.635 47.1054 156.024C44.6157 155.096 42.2448 154.212 40 153.381L0 138V368H1920V15.9998C1920 15.9998 1884.5 35.4998 1860 55.9998C1800.76 105.57 1760 122.188 1680 138C1635.23 146.849 1590.45 140.841 1545.68 128.541L1548.06 112.37L1570.7 115.697L1554.76 91.7178L1568.13 93.6824L1553.12 71.06L1568.49 73.3172Z" fill="#5B677E"/>
<path d="M0 126.328L50.6458 141.938C101.292 157.842 202.583 188.624 303.875 196.686C405.167 204.748 506.458 188.624 607.75 173.233C709.042 157.842 810.333 141.719 911.625 145.896C1012.92 149.78 1114.21 173.233 1215.5 184.96C1316.79 196.686 1418.08 196.686 1519.37 196.686C1620.67 196.686 1721.96 196.686 1823.25 204.528C1924.54 212.077 2025.83 228.201 2127.12 227.981C2228.42 228.201 2329.71 212.077 2380.35 204.528L2431 196.686V313.95H0V126.328Z" fill="#D7F4FF"/>
<path d="M179.415 87.005C187.186 88.1792 191.307 89.1278 197.135 92.7001L193.971 119.28L167.391 111.686L179.415 87.005Z" fill="#5B677E"/>
<circle cx="183" cy="158.764" r="23.7764" transform="rotate(-8.41514 183 158.764)" fill="#D7F4FF"/>
<circle cx="178.071" cy="125.442" r="17.8323" transform="rotate(-8.41514 178.071 125.442)" fill="#D7F4FF"/>
<circle cx="167.017" cy="123.969" r="3.42286" fill="black"/>
<circle cx="187.268" cy="121.437" r="3.42286" fill="black"/>
</g>
<defs>
<clipPath id="clip0_557_97">
<rect width="1920" height="299" fill="white"/>
</clipPath>
</defs>
</svg>
