<svg width="72" height="24" viewBox="0 0 72 24" fill="none" xmlns="http://www.w3.org/2000/svg">
<path fill-rule="evenodd" clip-rule="evenodd" d="M29 4C28.4477 4 28 4.44772 28 5V19C28 19.5523 28.4477 20 29 20H43C43.5523 20 44 19.5523 44 19V5C44 4.44772 43.5523 4 43 4H29ZM42 8H30V18H42V8Z" fill="white"/>
<path fill-rule="evenodd" clip-rule="evenodd" d="M53.7247 4.31072C53.3342 3.92019 52.701 3.92019 52.3105 4.31072C51.9199 4.70124 51.9199 5.3344 52.3105 5.72493L58.5897 12.0042L52.3106 18.2832C51.9201 18.6737 51.9201 19.3069 52.3106 19.6974C52.7011 20.088 53.3343 20.088 53.7248 19.6974L60.0039 13.4184L66.283 19.6974C66.6735 20.088 67.3067 20.088 67.6972 19.6974C68.0877 19.3069 68.0877 18.6737 67.6972 18.2832L61.4181 12.0042L67.6973 5.72493C68.0879 5.3344 68.0879 4.70124 67.6973 4.31072C67.3068 3.92019 66.6737 3.92019 66.2831 4.31072L60.0039 10.5899L53.7247 4.31072Z" fill="white"/>
<rect x="4" y="18" width="16" height="2" rx="1" fill="white"/>
</svg>
